<?xml version="1.0" standalone="no"?>
<!DOCTYPE svg PUBLIC "-//W3C//DTD SVG 20010904//EN"
 "http://www.w3.org/TR/2001/REC-SVG-20010904/DTD/svg10.dtd">
<svg version="1.0" xmlns="http://www.w3.org/2000/svg"
 width="612.000000pt" height="612.000000pt" viewBox="0 0 612.000000 612.000000"
 preserveAspectRatio="xMidYMid meet">
<metadata>
Created by potrace 1.14, written by Peter Selinger 2001-2017
</metadata>
<g transform="translate(0.000000,612.000000) scale(0.100000,-0.100000)"
fill="#000000" stroke="none">
<path d="M1788 4898 l-3 -143 -137 -3 -137 -3 -3 -137 -3 -137 -142 -3 -143
-3 0 -139 0 -140 -140 0 -140 0 0 -565 0 -565 140 0 c105 0 140 -3 140 -12 1
-7 1 -70 1 -140 l0 -128 144 0 145 0 0 -140 0 -139 138 -3 137 -3 3 -142 3
-143 139 0 140 0 0 -140 0 -140 140 0 140 0 0 -140 0 -140 145 0 145 0 0 -140
0 -139 138 -3 137 -3 3 -143 3 -142 139 0 140 0 0 145 0 145 140 0 140 0 0
140 0 139 143 3 142 3 0 138 0 137 143 0 142 0 0 140 0 140 140 0 140 0 0 145
0 145 140 0 140 0 0 140 0 140 144 0 144 0 0 128 c1 70 1 133 1 140 1 9 36 12
141 12 l140 0 0 565 0 565 -140 0 -140 0 0 118 c0 176 13 162 -151 162 l-139
0 0 140 0 139 -137 3 -138 3 -3 143 -3 142 -422 -2 -422 -3 -5 -140 -5 -140
-137 -3 -138 -3 0 -139 0 -140 -140 0 -140 0 0 140 0 140 -140 0 -139 0 -3
143 -3 142 -422 3 -422 2 -3 -142z m282 -988 l0 -140 -140 0 -140 0 0 -145 0
-145 140 0 140 0 0 -140 0 -140 -140 0 -140 0 0 140 0 140 -140 0 -140 0 0
145 0 145 140 0 140 0 0 140 0 140 140 0 140 0 0 -140z"/>
</g>
</svg>
