<?xml version="1.0" standalone="no"?>
<!DOCTYPE svg PUBLIC "-//W3C//DTD SVG 20010904//EN"
 "http://www.w3.org/TR/2001/REC-SVG-20010904/DTD/svg10.dtd">
<svg version="1.0" xmlns="http://www.w3.org/2000/svg"
 width="612.000000pt" height="612.000000pt" viewBox="0 0 612.000000 612.000000"
 preserveAspectRatio="xMidYMid meet">
<metadata>
Created by potrace 1.14, written by Peter Selinger 2001-2017
</metadata>
<g transform="translate(0.000000,612.000000) scale(0.100000,-0.100000)"
fill="#000000" stroke="none">
<path d="M2008 4577 c-38 -31 -51 -71 -38 -113 17 -50 57 -74 123 -74 l55 0 5
-202 c5 -218 14 -268 67 -406 84 -218 251 -411 530 -612 87 -63 99 -76 100
-111 0 -32 -13 -44 -150 -146 -130 -96 -311 -275 -372 -368 -136 -209 -178
-364 -178 -651 l0 -164 -58 0 c-68 0 -98 -17 -119 -67 -18 -45 -3 -94 37 -123
28 -20 41 -20 1047 -20 791 0 1024 3 1043 13 14 7 33 29 43 50 16 31 17 42 7
72 -17 52 -52 75 -116 75 l-54 0 0 164 c0 289 -51 471 -188 666 -66 93 -240
263 -362 353 -58 43 -115 87 -127 98 -23 21 -30 63 -15 85 4 5 63 52 132 104
212 160 370 333 452 495 79 154 108 298 108 531 l0 164 53 0 c62 0 93 18 114
67 18 43 4 93 -34 123 -25 20 -38 20 -1052 20 l-1026 0 -27 -23z m1829 -374
c-5 -220 -21 -297 -91 -438 -81 -163 -219 -311 -450 -481 -122 -90 -149 -127
-154 -211 -3 -49 0 -70 18 -106 24 -48 28 -51 180 -164 125 -93 280 -244 339
-331 58 -86 107 -191 132 -287 17 -63 23 -119 26 -267 l5 -188 -777 0 -777 0
5 188 c5 214 21 292 87 430 77 162 211 309 430 471 137 101 132 97 159 149 30
59 28 134 -5 192 -28 49 -25 46 -164 150 -272 202 -420 395 -481 625 -17 63
-23 119 -26 268 l-5 187 777 0 777 0 -5 -187z"/>
<path d="M2470 3919 c0 -26 66 -146 121 -219 74 -98 147 -165 316 -291 72 -54
136 -106 142 -116 10 -17 12 -17 21 -1 6 10 70 62 143 117 172 130 244 196
316 291 53 70 121 194 121 220 0 7 -204 10 -590 10 -425 0 -590 -3 -590 -11z"/>
<path d="M3016 2819 c-50 -40 -24 -119 40 -119 68 0 97 68 49 115 -30 30 -54
31 -89 4z"/>
<path d="M3030 2577 c-35 -18 -48 -61 -29 -95 12 -21 23 -28 56 -30 33 -2 44
1 57 20 23 32 20 65 -9 93 -27 28 -39 30 -75 12z"/>
<path d="M2979 2330 c-216 -28 -415 -170 -510 -365 l-39 -80 315 -3 c173 -1
457 -1 630 0 l315 3 -42 85 c-55 114 -176 237 -288 292 -121 59 -259 84 -381
68z"/>
</g>
</svg>
